<?xml version="1.0"?>
<svg xmlns="http://www.w3.org/2000/svg" xmlns:xlink="http://www.w3.org/1999/xlink" xmlns:svgjs="http://svgjs.com/svgjs" version="1.1" width="512" height="512" x="0" y="0" viewBox="0 0 512 512" style="enable-background:new 0 0 512 512" xml:space="preserve" class=""><g><g xmlns="http://www.w3.org/2000/svg"><path d="m193.09 152.902c-5.721-5.203-14.459-5.203-20.18 0l-168 152.728c-6.13 5.572-6.582 15.059-1.009 21.188 5.572 6.131 15.06 6.584 21.188 1.01l157.911-143.556 157.91 143.556c2.874 2.612 6.484 3.9 10.085 3.9 4.079 0 8.145-1.654 11.104-4.91 5.573-6.13 5.121-15.616-1.009-21.188z" fill="#06a27b" data-original="#000000" style=""/><path d="m162 393h42v98h-42z" fill="#06a27b" data-original="#000000" style=""/><path d="m36 358.454v117.546c0 8.284 6.716 15 15 15h81v-113c0-8.284 6.716-15 15-15h72c8.284 0 15 6.716 15 15v113h81c8.284 0 15-6.716 15-15v-117.545l-147-133.639zm180-52.454c0 8.284-6.716 15-15 15h-36c-8.284 0-15-6.716-15-15s6.716-15 15-15h36c8.284 0 15 6.716 15 15z" fill="#06a27b" data-original="#000000" style=""/><path d="m447 461h-15v-220.899c-4.919.588-9.923.899-15 .899s-10.081-.311-15-.899v220.899h-15c-8.284 0-15 6.716-15 15s6.716 15 15 15h60c8.284 0 15-6.716 15-15s-6.716-15-15-15z" fill="#06a27b" data-original="#000000" style=""/><path d="m417 21c-52.467 0-95 42.533-95 95s42.533 95 95 95 95-42.533 95-95-42.533-95-95-95zm6.322 109.508c-2.235 0-5.93.015-9.491.033v20.459c0 5.522-4.478 10-10 10s-10-4.478-10-10v-70h.001c0-2.646 1.047-5.185 2.917-7.06 1.876-1.883 4.424-2.94 7.082-2.94h19.491c16.619 0 30.141 13.348 30.141 29.754s-13.522 29.754-30.141 29.754z" fill="#06a27b" data-original="#000000" style=""/><path d="m423.322 91h-9.462c.011 3.858.034 15.862.052 19.54 3.541-.018 7.19-.032 9.41-.032 5.497 0 10.141-4.467 10.141-9.754s-4.644-9.754-10.141-9.754z" fill="#06a27b" data-original="#000000" style=""/></g></g></svg>
